<svg width="277" height="119" viewBox="0 0 277 119" fill="none" xmlns="http://www.w3.org/2000/svg">
<rect x="119.049" y="0.848389" width="22.6236" height="43.8889" fill="#FAFAFA"/>
<rect x="120.164" y="2.29221" width="20.3926" height="9.17667" fill="#E8B61F"/>
<rect x="120.164" y="12.9004" width="20.3926" height="9.17667" fill="#E55C2B"/>
<rect x="120.164" y="23.5087" width="20.3926" height="9.17667" fill="#E52B2B"/>
<rect x="120.164" y="34.1169" width="20.3926" height="9.17667" fill="#E52B75"/>
<rect x="136.984" y="9.02829" width="22.6236" height="43.8889" transform="rotate(17.9231 136.984 9.02829)" fill="#FAFAFA"/>
<rect x="137.601" y="10.7453" width="20.3926" height="9.17667" transform="rotate(17.9231 137.601 10.7453)" fill="#2BC9E5"/>
<rect x="134.336" y="20.8387" width="20.3926" height="9.17667" transform="rotate(17.9231 134.336 20.8387)" fill="#2B59E5"/>
<rect x="131.071" y="30.9322" width="20.3926" height="9.17667" transform="rotate(17.9231 131.071 30.9322)" fill="#312BE5"/>
<rect x="127.807" y="41.0255" width="20.3926" height="9.17667" transform="rotate(17.9231 127.807 41.0255)" fill="#0B076D"/>
<path d="M10.0122 95.855V71.656H0.652195V69.2209H22.1878V71.656H12.8278V95.855H10.0122ZM21.0868 95.855L33.2624 69.2209H36.0399L48.2156 95.855H45.2478L34.0614 70.857H35.2029L24.0165 95.855H21.0868ZM25.8809 88.7399L26.718 86.457H42.2038L43.0409 88.7399H25.8809ZM57.415 95.855V85.9623L58.0619 87.7126L46.7614 69.2209H49.7672L59.698 85.4677H58.0999L68.0306 69.2209H70.8463L59.5458 87.7126L60.1926 85.9623V95.855H57.415ZM74.6556 95.855V69.2209H76.9766L95.3541 92.3545H94.1366V69.2209H96.9141V95.855H94.5932L76.2536 72.7213H77.4712V95.855H74.6556ZM101.346 95.855L113.522 69.2209H116.299L128.475 95.855H125.507L114.321 70.857H115.462L104.276 95.855H101.346ZM106.14 88.7399L106.977 86.457H122.463L123.3 88.7399H106.14ZM150.182 96.0833C148.204 96.0833 146.301 95.7662 144.475 95.1321C142.674 94.4726 141.279 93.6355 140.289 92.6209L141.393 90.4521C142.331 91.3653 143.587 92.1389 145.16 92.7731C146.758 93.3818 148.432 93.6862 150.182 93.6862C151.856 93.6862 153.213 93.4833 154.253 93.0774C155.319 92.6462 156.092 92.0755 156.574 91.3653C157.082 90.655 157.335 89.8687 157.335 89.0062C157.335 87.9662 157.031 87.1292 156.422 86.495C155.839 85.8609 155.065 85.3662 154.101 85.0111C153.137 84.6306 152.072 84.3009 150.905 84.0218C149.738 83.7428 148.571 83.4511 147.405 83.1467C146.238 82.817 145.16 82.3857 144.17 81.8531C143.207 81.3204 142.42 80.6228 141.811 79.7604C141.228 78.8726 140.936 77.7184 140.936 76.2979C140.936 74.9789 141.279 73.774 141.964 72.6833C142.674 71.5672 143.752 70.6794 145.198 70.0199C146.644 69.335 148.495 68.9926 150.753 68.9926C152.249 68.9926 153.733 69.2082 155.205 69.6394C156.676 70.0452 157.944 70.616 159.009 71.3516L158.058 73.5965C156.917 72.8355 155.699 72.2774 154.406 71.9223C153.137 71.5672 151.907 71.3896 150.715 71.3896C149.117 71.3896 147.798 71.6053 146.758 72.0365C145.718 72.4677 144.944 73.0511 144.437 73.7867C143.955 74.497 143.714 75.3087 143.714 76.2218C143.714 77.2618 144.006 78.0989 144.589 78.7331C145.198 79.3672 145.984 79.8618 146.948 80.217C147.937 80.5721 149.015 80.8892 150.182 81.1682C151.349 81.4472 152.503 81.7516 153.645 82.0813C154.811 82.4111 155.877 82.8423 156.841 83.375C157.83 83.8823 158.616 84.5672 159.2 85.4296C159.808 86.2921 160.113 87.4209 160.113 88.816C160.113 90.1096 159.758 91.3145 159.048 92.4306C158.337 93.5214 157.247 94.4092 155.775 95.094C154.329 95.7535 152.465 96.0833 150.182 96.0833ZM177.891 96.0833C175.887 96.0833 174.022 95.7535 172.297 95.094C170.598 94.4092 169.114 93.4579 167.846 92.2404C166.603 90.9974 165.626 89.5643 164.916 87.9409C164.231 86.2921 163.889 84.4911 163.889 82.5379C163.889 80.5848 164.231 78.7965 164.916 77.1731C165.626 75.5243 166.603 74.0911 167.846 72.8735C169.114 71.6306 170.598 70.6794 172.297 70.0199C173.997 69.335 175.861 68.9926 177.891 68.9926C179.894 68.9926 181.746 69.335 183.446 70.0199C185.145 70.6794 186.616 71.6179 187.859 72.8355C189.128 74.0531 190.104 75.4862 190.789 77.135C191.499 78.7838 191.854 80.5848 191.854 82.5379C191.854 84.4911 191.499 86.2921 190.789 87.9409C190.104 89.5896 189.128 91.0228 187.859 92.2404C186.616 93.4579 185.145 94.4092 183.446 95.094C181.746 95.7535 179.894 96.0833 177.891 96.0833ZM177.891 93.5721C179.489 93.5721 180.96 93.3057 182.304 92.7731C183.674 92.215 184.853 91.4414 185.843 90.4521C186.857 89.4374 187.644 88.2706 188.202 86.9516C188.76 85.6072 189.039 84.136 189.039 82.5379C189.039 80.9399 188.76 79.4813 188.202 78.1623C187.644 76.8179 186.857 75.6511 185.843 74.6618C184.853 73.6472 183.674 72.8735 182.304 72.3409C180.96 71.7828 179.489 71.5038 177.891 71.5038C176.293 71.5038 174.809 71.7828 173.439 72.3409C172.069 72.8735 170.877 73.6472 169.862 74.6618C168.873 75.6511 168.087 76.8179 167.503 78.1623C166.945 79.4813 166.666 80.9399 166.666 82.5379C166.666 84.1106 166.945 85.5692 167.503 86.9135C168.087 88.2579 168.873 89.4374 169.862 90.4521C170.877 91.4414 172.069 92.215 173.439 92.7731C174.809 93.3057 176.293 93.5721 177.891 93.5721ZM208.895 96.0833C205.496 96.0833 202.82 95.1067 200.867 93.1535C198.914 91.2004 197.937 88.3087 197.937 84.4784V69.2209H200.753V84.3643C200.753 87.5096 201.463 89.8306 202.884 91.3272C204.304 92.8238 206.308 93.5721 208.895 93.5721C211.508 93.5721 213.525 92.8238 214.945 91.3272C216.366 89.8306 217.076 87.5096 217.076 84.3643V69.2209H219.815V84.4784C219.815 88.3087 218.839 91.2004 216.886 93.1535C214.958 95.1067 212.294 96.0833 208.895 96.0833ZM225.675 95.855V93.9145L244.166 70.5906L244.471 71.656H225.941V69.2209H247.058V71.1613L228.604 94.4853L228.262 93.4199H247.515V95.855H225.675ZM248.822 95.855L260.998 69.2209H263.775L275.951 95.855H272.983L261.797 70.857H262.938L251.752 95.855H248.822ZM253.616 88.7399L254.453 86.457H269.939L270.776 88.7399H253.616Z" fill="black"/>
<path d="M36.8852 114.625C36.0587 114.625 35.2948 114.489 34.5938 114.217C33.8928 113.934 33.2859 113.542 32.7732 113.039C32.2606 112.537 31.8577 111.946 31.5648 111.266C31.2823 110.586 31.141 109.843 31.141 109.037C31.141 108.232 31.2823 107.489 31.5648 106.809C31.8577 106.129 32.2606 105.537 32.7732 105.035C33.2964 104.533 33.9085 104.146 34.6095 103.874C35.3105 103.591 36.0743 103.45 36.9009 103.45C37.6961 103.45 38.4442 103.586 39.1453 103.858C39.8463 104.12 40.4374 104.517 40.9187 105.051L40.1811 105.789C39.7312 105.328 39.2342 104.999 38.6901 104.8C38.146 104.591 37.5601 104.486 36.9323 104.486C36.2731 104.486 35.6611 104.601 35.096 104.831C34.531 105.051 34.0393 105.37 33.6208 105.789C33.2022 106.197 32.8726 106.678 32.632 107.232C32.4018 107.777 32.2867 108.378 32.2867 109.037C32.2867 109.696 32.4018 110.303 32.632 110.858C32.8726 111.402 33.2022 111.883 33.6208 112.302C34.0393 112.71 34.531 113.029 35.096 113.259C35.6611 113.479 36.2731 113.589 36.9323 113.589C37.5601 113.589 38.146 113.484 38.6901 113.275C39.2342 113.066 39.7312 112.731 40.1811 112.27L40.9187 113.008C40.4374 113.542 39.8463 113.944 39.1453 114.217C38.4442 114.489 37.6909 114.625 36.8852 114.625ZM47.9672 114.625C47.1406 114.625 46.3716 114.489 45.6601 114.217C44.9591 113.934 44.347 113.542 43.8238 113.039C43.3112 112.527 42.9083 111.936 42.6154 111.266C42.3329 110.586 42.1916 109.843 42.1916 109.037C42.1916 108.232 42.3329 107.494 42.6154 106.824C42.9083 106.144 43.3112 105.553 43.8238 105.051C44.347 104.538 44.9591 104.146 45.6601 103.874C46.3611 103.591 47.1302 103.45 47.9672 103.45C48.7938 103.45 49.5576 103.591 50.2586 103.874C50.9597 104.146 51.5665 104.533 52.0792 105.035C52.6024 105.537 53.0052 106.129 53.2877 106.809C53.5807 107.489 53.7271 108.232 53.7271 109.037C53.7271 109.843 53.5807 110.586 53.2877 111.266C53.0052 111.946 52.6024 112.537 52.0792 113.039C51.5665 113.542 50.9597 113.934 50.2586 114.217C49.5576 114.489 48.7938 114.625 47.9672 114.625ZM47.9672 113.589C48.6264 113.589 49.2332 113.479 49.7878 113.259C50.3528 113.029 50.8393 112.71 51.2474 112.302C51.6659 111.883 51.9903 111.402 52.2205 110.858C52.4506 110.303 52.5657 109.696 52.5657 109.037C52.5657 108.378 52.4506 107.777 52.2205 107.232C51.9903 106.678 51.6659 106.197 51.2474 105.789C50.8393 105.37 50.3528 105.051 49.7878 104.831C49.2332 104.601 48.6264 104.486 47.9672 104.486C47.308 104.486 46.696 104.601 46.1309 104.831C45.5659 105.051 45.0742 105.37 44.6557 105.789C44.2476 106.197 43.9232 106.678 43.6826 107.232C43.4524 107.777 43.3373 108.378 43.3373 109.037C43.3373 109.686 43.4524 110.288 43.6826 110.842C43.9232 111.397 44.2476 111.883 44.6557 112.302C45.0742 112.71 45.5659 113.029 46.1309 113.259C46.696 113.479 47.308 113.589 47.9672 113.589ZM56.3304 114.53V103.544H57.2877L64.8682 113.087H64.366V103.544H65.5117V114.53H64.5543L56.9895 104.988H57.4918V114.53H56.3304ZM72.1266 114.625C71.3105 114.625 70.5258 114.494 69.7724 114.232C69.0295 113.96 68.4541 113.615 68.046 113.196L68.5012 112.302C68.8883 112.678 69.4062 112.998 70.0549 113.259C70.7141 113.51 71.4047 113.636 72.1266 113.636C72.8172 113.636 73.3769 113.552 73.8059 113.385C74.2454 113.207 74.5645 112.971 74.7633 112.678C74.9726 112.385 75.0772 112.061 75.0772 111.705C75.0772 111.276 74.9516 110.931 74.7005 110.67C74.4599 110.408 74.1407 110.204 73.7431 110.057C73.3456 109.901 72.9061 109.764 72.4248 109.649C71.9435 109.534 71.4622 109.414 70.9809 109.288C70.4996 109.152 70.0549 108.975 69.6469 108.755C69.2493 108.535 68.9249 108.247 68.6738 107.892C68.4331 107.525 68.3128 107.049 68.3128 106.463C68.3128 105.919 68.4541 105.422 68.7366 104.972C69.0295 104.512 69.4742 104.146 70.0706 103.874C70.667 103.591 71.4308 103.45 72.362 103.45C72.9793 103.45 73.5914 103.539 74.1983 103.717C74.8051 103.884 75.3283 104.12 75.7678 104.423L75.3754 105.349C74.9045 105.035 74.4023 104.805 73.8687 104.659C73.3456 104.512 72.8381 104.439 72.3463 104.439C71.6872 104.439 71.1431 104.528 70.7141 104.706C70.2851 104.883 69.966 105.124 69.7567 105.428C69.5579 105.721 69.4585 106.055 69.4585 106.432C69.4585 106.861 69.5788 107.206 69.8195 107.468C70.0706 107.729 70.395 107.933 70.7926 108.08C71.2006 108.226 71.6453 108.357 72.1266 108.472C72.6079 108.587 73.084 108.713 73.5548 108.849C74.0361 108.985 74.4756 109.163 74.8732 109.383C75.2812 109.592 75.6056 109.874 75.8462 110.23C76.0973 110.586 76.2229 111.051 76.2229 111.627C76.2229 112.161 76.0764 112.658 75.7834 113.118C75.4905 113.568 75.0406 113.934 74.4337 114.217C73.8373 114.489 73.0683 114.625 72.1266 114.625ZM83.1793 114.625C81.7772 114.625 80.6734 114.222 79.8677 113.416C79.0621 112.61 78.6592 111.418 78.6592 109.838V103.544H79.8206V109.791C79.8206 111.088 80.1136 112.045 80.6995 112.663C81.2855 113.28 82.112 113.589 83.1793 113.589C84.257 113.589 85.0888 113.28 85.6747 112.663C86.2607 112.045 86.5536 111.088 86.5536 109.791V103.544H87.6836V109.838C87.6836 111.418 87.2808 112.61 86.4751 113.416C85.68 114.222 84.5813 114.625 83.1793 114.625ZM91.1834 114.53V103.544H92.3448V113.526H98.4971V114.53H91.1834ZM101.533 114.53V104.549H97.6721V103.544H106.555V104.549H102.694V114.53H101.533ZM113.06 114.625C112.233 114.625 111.464 114.489 110.753 114.217C110.052 113.934 109.44 113.542 108.917 113.039C108.404 112.527 108.001 111.936 107.708 111.266C107.426 110.586 107.284 109.843 107.284 109.037C107.284 108.232 107.426 107.494 107.708 106.824C108.001 106.144 108.404 105.553 108.917 105.051C109.44 104.538 110.052 104.146 110.753 103.874C111.454 103.591 112.223 103.45 113.06 103.45C113.887 103.45 114.65 103.591 115.351 103.874C116.052 104.146 116.659 104.533 117.172 105.035C117.695 105.537 118.098 106.129 118.38 106.809C118.673 107.489 118.82 108.232 118.82 109.037C118.82 109.843 118.673 110.586 118.38 111.266C118.098 111.946 117.695 112.537 117.172 113.039C116.659 113.542 116.052 113.934 115.351 114.217C114.65 114.489 113.887 114.625 113.06 114.625ZM113.06 113.589C113.719 113.589 114.326 113.479 114.881 113.259C115.446 113.029 115.932 112.71 116.34 112.302C116.759 111.883 117.083 111.402 117.313 110.858C117.543 110.303 117.658 109.696 117.658 109.037C117.658 108.378 117.543 107.777 117.313 107.232C117.083 106.678 116.759 106.197 116.34 105.789C115.932 105.37 115.446 105.051 114.881 104.831C114.326 104.601 113.719 104.486 113.06 104.486C112.401 104.486 111.789 104.601 111.224 104.831C110.659 105.051 110.167 105.37 109.748 105.789C109.34 106.197 109.016 106.678 108.775 107.232C108.545 107.777 108.43 108.378 108.43 109.037C108.43 109.686 108.545 110.288 108.775 110.842C109.016 111.397 109.34 111.883 109.748 112.302C110.167 112.71 110.659 113.029 111.224 113.259C111.789 113.479 112.401 113.589 113.06 113.589ZM121.423 114.53V103.544H125.535C126.466 103.544 127.267 103.696 127.936 103.999C128.606 104.292 129.119 104.721 129.474 105.286C129.841 105.841 130.024 106.516 130.024 107.311C130.024 108.085 129.841 108.755 129.474 109.32C129.119 109.874 128.606 110.303 127.936 110.607C127.267 110.9 126.466 111.046 125.535 111.046H122.067L122.585 110.513V114.53H121.423ZM128.925 114.53L126.1 110.544H127.356L130.196 114.53H128.925ZM122.585 110.607L122.067 110.057H125.504C126.602 110.057 127.434 109.817 127.999 109.336C128.575 108.854 128.862 108.179 128.862 107.311C128.862 106.432 128.575 105.752 127.999 105.271C127.434 104.789 126.602 104.549 125.504 104.549H122.067L122.585 103.999V110.607ZM132.765 114.53V103.544H133.926V114.53H132.765ZM135.743 114.53L140.765 103.544H141.911L146.933 114.53H145.709L141.095 104.219H141.566L136.952 114.53H135.743ZM137.721 111.596L138.066 110.654H144.454L144.799 111.596H137.721ZM152.858 114.53V103.544H157.331C158.503 103.544 159.528 103.78 160.407 104.25C161.297 104.711 161.987 105.354 162.479 106.181C162.971 107.007 163.217 107.96 163.217 109.037C163.217 110.115 162.971 111.067 162.479 111.894C161.987 112.72 161.297 113.369 160.407 113.84C159.528 114.3 158.503 114.53 157.331 114.53H152.858ZM154.02 113.526H157.268C158.242 113.526 159.084 113.338 159.795 112.961C160.517 112.574 161.077 112.045 161.475 111.376C161.872 110.696 162.071 109.916 162.071 109.037C162.071 108.148 161.872 107.368 161.475 106.699C161.077 106.029 160.517 105.506 159.795 105.129C159.084 104.742 158.242 104.549 157.268 104.549H154.02V113.526ZM166.861 108.457H172.668V109.445H166.861V108.457ZM166.986 113.526H173.594V114.53H165.825V103.544H173.358V104.549H166.986V113.526ZM180.431 114.53V103.544H181.593V114.53H180.431ZM185.167 114.53V103.544H186.124L191.147 112.113H190.645L195.62 103.544H196.577V114.53H195.463V105.286H195.73L191.147 113.134H190.597L185.983 105.286H186.281V114.53H185.167ZM198.399 114.53L203.421 103.544H204.567L209.589 114.53H208.365L203.751 104.219H204.222L199.607 114.53H198.399ZM200.376 111.596L200.722 110.654H207.109L207.455 111.596H200.376ZM216.071 114.625C215.234 114.625 214.46 114.489 213.749 114.217C213.048 113.934 212.436 113.542 211.912 113.039C211.4 112.537 210.997 111.946 210.704 111.266C210.421 110.586 210.28 109.843 210.28 109.037C210.28 108.232 210.421 107.489 210.704 106.809C210.997 106.129 211.405 105.537 211.928 105.035C212.451 104.533 213.063 104.146 213.764 103.874C214.476 103.591 215.25 103.45 216.087 103.45C216.924 103.45 217.688 103.581 218.379 103.842C219.08 104.104 219.676 104.502 220.168 105.035L219.446 105.773C218.985 105.312 218.478 104.983 217.923 104.784C217.369 104.585 216.773 104.486 216.134 104.486C215.454 104.486 214.826 104.601 214.251 104.831C213.686 105.051 213.189 105.37 212.76 105.789C212.341 106.197 212.012 106.678 211.771 107.232C211.541 107.777 211.426 108.378 211.426 109.037C211.426 109.686 211.541 110.288 211.771 110.842C212.012 111.397 212.341 111.883 212.76 112.302C213.189 112.71 213.686 113.029 214.251 113.259C214.826 113.479 215.449 113.589 216.119 113.589C216.746 113.589 217.338 113.495 217.892 113.306C218.457 113.118 218.975 112.799 219.446 112.349L220.105 113.228C219.582 113.688 218.97 114.039 218.269 114.279C217.568 114.509 216.835 114.625 216.071 114.625ZM218.991 113.087V109.037H220.105V113.228L218.991 113.087ZM224.428 108.457H230.235V109.445H224.428V108.457ZM224.553 113.526H231.161V114.53H223.392V103.544H230.925V104.549H224.553V113.526ZM233.891 114.53V103.544H234.848L239.871 112.113H239.368L244.343 103.544H245.301V114.53H244.187V105.286H244.453L239.871 113.134H239.321L234.707 105.286H235.005V114.53H233.891Z" fill="black"/>
</svg>
